<?xml version="1.0" encoding="utf-8"?>
<!-- Generator: Adobe Illustrator 24.0.2, SVG Export Plug-In . SVG Version: 6.00 Build 0)  -->
<svg version="1.1" id="Слой_1" xmlns="http://www.w3.org/2000/svg" xmlns:xlink="http://www.w3.org/1999/xlink" x="0px" y="0px"
	 viewBox="0 0 28 29" style="enable-background:new 0 0 28 29;" xml:space="preserve">
<style type="text/css">
	.st0{fill:#E3B873;}
</style>
<path class="st0" d="M27.7,22.6l-8.4-8.4l3.3-3.3h0l2-2l0,0l2.8-2.8c0.8-0.8,0.8-2.1,0-2.9L25,0.8c-0.4-0.4-0.9-0.6-1.4-0.6
	s-1.1,0.2-1.4,0.6l-2.8,2.8l-2,2L14,8.9L5.7,0.6c-0.5-0.5-1.4-0.5-2,0L0.4,3.9c-0.6,0.5-0.6,1.4,0,2l1,1l2.7,2.7l2.6,2.6
	c0,0,0,0,0,0l2.1,2.1l-7.5,7.5C1.1,21.8,1,21.9,1,22.1l-1,5.6c0,0.2,0,0.3,0.1,0.4c0.1,0.1,0.2,0.1,0.3,0.1c0,0,0,0,0.1,0l5.4-1
	c0,0,0.1,0,0.1,0c0.1,0,0.3,0,0.3-0.1l7.6-7.6l0.6,0.6c0,0,0,0,0,0l0,0l1.3,1.3c0,0,0,0,0,0l0,0l6.5,6.5c0.2,0.2,0.5,0.3,0.8,0.3
	c0.3,0,0.6-0.1,0.7-0.3l3.7-3.7C28.1,23.7,28.1,23,27.7,22.6z M6.1,26.1l-1.6-1.6L20,9l1.6,1.6L6.1,26.1z M22.8,1.5
	c0.4-0.4,1.2-0.4,1.6,0l2.4,2.4c0.4,0.4,0.4,1.2,0,1.6L24.2,8l-4-4L22.8,1.5z M19.6,4.6l2,2l2,2l-1.3,1.3l-4-4L19.6,4.6z M9,13.2
	l1-1c0.2-0.2,0.2-0.5,0-0.7c-0.2-0.2-0.5-0.2-0.7,0l-1,1l-0.7-0.7l1.6-1.6c0.2-0.2,0.2-0.5,0-0.7c-0.2-0.2-0.5-0.2-0.7,0L7,11.2
	l-0.7-0.7l1-1c0.2-0.2,0.2-0.5,0-0.7c-0.2-0.2-0.5-0.2-0.7,0l-1,1L5,9.2l1.6-1.6c0.2-0.2,0.2-0.5,0-0.7C6.5,6.7,6.2,6.7,6,6.9
	L4.4,8.6L3.7,7.9l1-1c0.2-0.2,0.2-0.5,0-0.7C4.5,6,4.2,6,4,6.2l-1,1L2.4,6.6L4,4.9c0.2-0.2,0.2-0.5,0-0.7c-0.2-0.2-0.5-0.2-0.7,0
	L1.7,5.9L1.1,5.3c-0.2-0.2-0.2-0.5,0-0.7l3.3-3.3c0.1-0.1,0.2-0.1,0.3-0.1c0.1,0,0.2,0,0.3,0.1l8.3,8.3l-4,4L9,13.2z M17.6,6.7
	l1.6,1.6L3.8,23.8l-1.6-1.6L17.6,6.7z M1.8,23.1l1.5,1.5c0,0.1,0.1,0.1,0.1,0.1l1.7,1.7l-4,0.7L1.8,23.1z M27,23.5l-3.7,3.7
	c0,0-0.2,0-0.2,0l-4.8-4.8l1.7-1.7c0.2-0.2,0.2-0.5,0-0.7c-0.2-0.2-0.5-0.2-0.7,0l-1.7,1.7l-0.7-0.7l1-1c0.2-0.2,0.2-0.5,0-0.7
	c-0.2-0.2-0.5-0.2-0.7,0l-1,1l-0.7-0.7l1.6-1.6c0.2-0.2,0.2-0.5,0-0.7c-0.2-0.2-0.5-0.2-0.7,0l-1.6,1.6l-0.3-0.3l4-4l8.4,8.4
	C27.1,23.3,27.1,23.5,27,23.5z"/>
<path class="st0" d="M21.7,21.8c-0.7,0.7-0.7,1.9,0,2.6c0.4,0.4,0.8,0.6,1.3,0.6s0.9-0.2,1.3-0.6c0.7-0.7,0.7-1.9,0-2.6
	C23.6,21,22.4,21,21.7,21.8z M23.6,23.8c-0.4,0.4-0.9,0.4-1.3,0c-0.4-0.4-0.4-0.9,0-1.3c0.2-0.2,0.4-0.3,0.7-0.3
	c0.2,0,0.5,0.1,0.7,0.3C24,22.8,24,23.4,23.6,23.8z"/>
</svg>
